<?xml version="1.0" encoding="utf-8"?>
<!-- Generator: Adobe Illustrator 19.2.1, SVG Export Plug-In . SVG Version: 6.00 Build 0)  -->
<svg version="1.1" id="Layer_1" xmlns="http://www.w3.org/2000/svg" xmlns:xlink="http://www.w3.org/1999/xlink" x="0px" y="0px"
	 viewBox="0 0 1280 720" style="enable-background:new 0 0 1280 720;" xml:space="preserve">
<style type="text/css">
	.st0{fill:#FFFFFF;}
	.st1{display:none;}
	.st2{display:inline;}
	.st3{fill:#FF9800;}
	.st4{fill:url(#SVGID_1_);}
	.st5{fill:#FF5402;}
	.st6{opacity:0.8;fill:url(#SVGID_2_);enable-background:new    ;}
	.st7{opacity:0.9;fill:url(#SVGID_3_);enable-background:new    ;}
	.st8{opacity:0.8;fill:url(#SVGID_4_);enable-background:new    ;}
	.st9{fill:url(#SVGID_5_);}
	.st10{fill:none;}
	.st11{fill:url(#SVGID_6_);}
	.st12{fill:url(#SVGID_7_);}
	.st13{opacity:0.8;fill:url(#SVGID_8_);enable-background:new    ;}
	.st14{opacity:0.9;fill:url(#SVGID_9_);enable-background:new    ;}
	.st15{opacity:0.8;fill:url(#SVGID_10_);enable-background:new    ;}
	.st16{fill:url(#SVGID_11_);}
</style>
<rect x="-12.6" y="-14.1" class="st0" width="1304.9" height="747.9"/>
<g>
	<g>
		<path d="M669.5,290.7l-43-27.4c-1.2-0.8-2.7-0.8-4-0.1c-1.2,0.7-2,2-2,3.4v54.7c0,1.4,0.8,2.8,2,3.4c0.6,0.3,1.2,0.5,1.9,0.5
			s1.5-0.2,2.1-0.6l43-27.4c1.1-0.7,1.8-2,1.8-3.3C671.3,292.6,670.6,291.4,669.5,290.7L669.5,290.7z M628.3,314.2v-40.5l31.8,20.2
			L628.3,314.2z"/>
		<path d="M749.5,204h-219c-2.2,0-3.9,1.8-3.9,3.9V380c0,2.2,1.8,3.9,3.9,3.9h219c2.2,0,3.9-1.8,3.9-3.9V207.9
			C753.4,205.8,751.7,204,749.5,204L749.5,204z M565.7,290h-31.3v-35.2h31.3V290z M534.4,297.9h31.3V333h-31.3V297.9z M573.5,337
			V211.8h133V376h-133V337z M745.6,290h-31.3v-35.2h31.3V290z M714.3,297.9h31.3V333h-31.3V297.9z M745.6,211.8V247h-31.3v-35.2
			H745.6z M534.4,211.8h31.3V247h-31.3V211.8z M534.4,376.1v-35.2h31.3v35.2H534.4z M745.6,376.1h-31.3v-35.2h31.3V376.1z"/>
	</g>
	<g>
		<path d="M239.5,445.8v20.1h30.9l3.6,14.2h-34.4v20.1h41.5v14.2h-55.8v-82.9h55.8v14.2L239.5,445.8L239.5,445.8z"/>
		<path d="M339.7,500.3v14.2h-32.6h-14.2v-14.2v-68.5h14.2v68.5H339.7z"/>
		<path d="M364.5,445.8v20.1h30.9l3.6,14.2h-34.4v20.1h41.5v14.2h-55.8v-82.9h55.8v14.2L364.5,445.8L364.5,445.8z"/>
		<path d="M500.9,431.5v82.9h-14.2v-58.7L459.4,498l-27.2-42.3v58.7H418v-82.9h15.5l25.9,40.2l26-40.2L500.9,431.5L500.9,431.5z"/>
		<path d="M529.3,445.8v20.1h30.9l3.6,14.2h-34.4v20.1h41.5v14.2h-55.8v-82.9h55.8v14.2L529.3,445.8L529.3,445.8z"/>
		<path d="M645.6,431.5v82.9h-15.4l-33.3-56.7v56.7h-14.2v-82.9h15.4l33.3,56.7v-56.7L645.6,431.5L645.6,431.5z"/>
		<path d="M719.1,445.8h-24.3v68.7h-14.2v-68.7h-24.4v-14.2h24.4h14.2h24.3V445.8z"/>
		<path d="M795.9,434c3.6,1.6,6.8,3.7,9.5,6.4c2.7,2.7,4.8,5.8,6.4,9.4c1.6,3.6,2.4,7.4,2.4,11.5s-0.8,8-2.4,11.6
			c-1.6,3.6-3.7,6.8-6.4,9.5s-5.8,4.8-9.5,6.4c-3.6,1.6-7.5,2.4-11.6,2.4h-11.8l5.8-14.2h6c4.3,0,7.9-1.5,11-4.6s4.6-6.7,4.6-11
			s-1.5-8-4.6-10.9c-3.1-3.1-6.7-4.6-11-4.6h-16.7v68.7h-14.2v-82.9h30.9C788.4,431.6,792.3,432.4,795.9,434z"/>
		<path d="M898.7,514.5H883l-6.4-14.2l-6.4-14.2l-16.8-37.2L836.6,486h21.5l6.4,14.2h-34.3l-6.4,14.2h-15.6l37.4-82.9h15.6
			L898.7,514.5z"/>
		<path d="M978.2,503.3c-3.9,3.9-8.5,7-13.7,9.3c-5.2,2.2-10.8,3.4-16.8,3.4c-5.9,0-11.5-1.1-16.8-3.4c-5.2-2.2-9.8-5.3-13.7-9.2
			s-7-8.5-9.2-13.7s-3.4-10.8-3.4-16.8s1.1-11.5,3.4-16.8c2.2-5.2,5.3-9.8,9.2-13.7c3.9-3.9,8.5-7,13.7-9.2s10.8-3.4,16.8-3.4
			s11.6,1.1,16.8,3.4c5.2,2.2,9.8,5.3,13.7,9.3l-10.1,10.1c-2.8-2.8-5.9-4.9-9.4-6.3c-3.5-1.5-7.2-2.2-11.1-2.2
			c-3.9,0-7.5,0.7-11,2.2s-6.6,3.6-9.4,6.3c-2.8,2.8-4.9,5.9-6.3,9.4c-1.5,3.5-2.2,7.1-2.2,11s0.7,7.6,2.2,11.1s3.6,6.6,6.3,9.4
			c2.8,2.8,5.9,4.9,9.4,6.3s7.1,2.1,11,2.1s7.7-0.7,11.1-2.1c3.5-1.4,6.6-3.5,9.4-6.3L978.2,503.3z"/>
		<path d="M1034.5,514.7l-31.5-31.5v31.3h-14.2v-82.7h14.2v31.4l31.3-31.3h20.1l-41.3,41.3l41.5,41.5L1034.5,514.7L1034.5,514.7z"/>
	</g>
</g>
<g class="st1">
	<g class="st2">
		<polygon class="st3" points="1201.1,264.8 1215,334.6 1112,231 		"/>
	</g>
</g>
<g>
	<polygon class="st3" points="1162.6,499.8 927.3,264.5 897.8,161.1 1162.6,425.9 	"/>
	
		<linearGradient id="SVGID_1_" gradientUnits="userSpaceOnUse" x1="972.7" y1="566.34" x2="1279.8" y2="566.34" gradientTransform="matrix(1 0 0 -1 0 719.89)">
		<stop  offset="0" style="stop-color:#F42C2B"/>
		<stop  offset="0.3712" style="stop-color:#F12A29"/>
		<stop  offset="0.6939" style="stop-color:#E62321"/>
		<stop  offset="0.9983" style="stop-color:#D41714"/>
		<stop  offset="1" style="stop-color:#D41714"/>
	</linearGradient>
	<polygon class="st4" points="1279.8,285.8 1279.8,307.2 972.7,0 991.7,-0.1 994,0 1279.6,285.6 	"/>
	<polygon class="st5" points="820.2,-0.1 1122.6,302.3 1111.2,200 911.2,0 	"/>
	
		<radialGradient id="SVGID_2_" cx="1116.7" cy="556.79" r="163.1" gradientTransform="matrix(1 0 0 -1 0 719.89)" gradientUnits="userSpaceOnUse">
		<stop  offset="0" style="stop-color:#FFC200"/>
		<stop  offset="0.233" style="stop-color:#FFAE00"/>
		<stop  offset="0.4486" style="stop-color:#FF9800"/>
		<stop  offset="0.6278" style="stop-color:#FF7D01"/>
		<stop  offset="0.8655" style="stop-color:#FF5F02"/>
		<stop  offset="1" style="stop-color:#FF5402"/>
	</radialGradient>
	<polygon class="st6" points="1279.8,323 1279.8,326.2 1279.6,325.9 953.6,0 956.8,0 	"/>
	
		<linearGradient id="SVGID_3_" gradientUnits="userSpaceOnUse" x1="416.6538" y1="507.14" x2="942.7538" y2="507.14" gradientTransform="matrix(-1 0 0 -1 1696.2538 719.89)">
		<stop  offset="0" style="stop-color:#F42C2B"/>
		<stop  offset="0.3712" style="stop-color:#F12A29"/>
		<stop  offset="0.6939" style="stop-color:#E62321"/>
		<stop  offset="0.9983" style="stop-color:#D41714"/>
		<stop  offset="1" style="stop-color:#D41714"/>
	</linearGradient>
	<polygon class="st7" points="1279.6,424.3 855.2,-0.1 753.5,0.2 1176.7,425.6 	"/>
	<g>
		
			<radialGradient id="SVGID_4_" cx="1034.3557" cy="745.4271" r="385.1451" gradientTransform="matrix(1 0 0 -1 0 719.89)" gradientUnits="userSpaceOnUse">
			<stop  offset="0" style="stop-color:#FFC200"/>
			<stop  offset="0.233" style="stop-color:#FFAE00"/>
			<stop  offset="0.4486" style="stop-color:#FF9800"/>
			<stop  offset="0.6278" style="stop-color:#FF7D01"/>
			<stop  offset="0.8655" style="stop-color:#FF5F02"/>
			<stop  offset="1" style="stop-color:#FF5402"/>
		</radialGradient>
		<polygon class="st8" points="1263.5,131.4 1134.5,0.6 1030.7,-0.1 1263.5,232.6 		"/>
	</g>
	
		<radialGradient id="SVGID_5_" cx="1118.5647" cy="497.6771" r="194.8646" gradientTransform="matrix(1 0 0 -1 0 719.89)" gradientUnits="userSpaceOnUse">
		<stop  offset="0" style="stop-color:#FFC200"/>
		<stop  offset="0.233" style="stop-color:#FFAE00"/>
		<stop  offset="0.4486" style="stop-color:#FF9800"/>
		<stop  offset="0.6278" style="stop-color:#FF7D01"/>
		<stop  offset="0.8655" style="stop-color:#FF5F02"/>
		<stop  offset="1" style="stop-color:#FF5402"/>
	</radialGradient>
	<polygon class="st9" points="1116.7,235.1 1234.5,352.8 1223.4,274.8 	"/>
</g>
<line class="st10" x1="955.2" y1="-1.3" x2="954.1" y2="-0.2"/>
<g>
	
		<linearGradient id="SVGID_6_" gradientUnits="userSpaceOnUse" x1="202.5" y1="83.64" x2="324.6" y2="83.64" gradientTransform="matrix(1 0 0 -1 0 719.89)">
		<stop  offset="0" style="stop-color:#F42C2B"/>
		<stop  offset="0.3712" style="stop-color:#F12A29"/>
		<stop  offset="0.6939" style="stop-color:#E62321"/>
		<stop  offset="0.9983" style="stop-color:#D41714"/>
		<stop  offset="1" style="stop-color:#D41714"/>
	</linearGradient>
	<polygon class="st11" points="219.3,579.4 324.6,684.7 316.2,693.1 202.5,579.4 	"/>
	<polygon class="st3" points="97.7,660.5 97.7,718.8 0,621.1 0,562.8 	"/>
	
		<linearGradient id="SVGID_7_" gradientUnits="userSpaceOnUse" x1="0" y1="259.59" x2="200.6" y2="259.59" gradientTransform="matrix(1 0 0 -1 0 719.89)">
		<stop  offset="0" style="stop-color:#F42C2B"/>
		<stop  offset="0.3712" style="stop-color:#F12A29"/>
		<stop  offset="0.6939" style="stop-color:#E62321"/>
		<stop  offset="0.9983" style="stop-color:#D41714"/>
		<stop  offset="1" style="stop-color:#D41714"/>
	</linearGradient>
	<polygon class="st12" points="200.6,560.6 183.8,560.6 0,376.8 0,360 	"/>
	<polygon class="st5" points="66.2,563.1 0,497 0,425.3 57.2,482.5 59.4,502 59.4,502.5 62.7,532.1 	"/>
	
		<radialGradient id="SVGID_8_" cx="128.5064" cy="199.0556" r="128.8208" gradientTransform="matrix(1 0 0 -1 0 719.89)" gradientUnits="userSpaceOnUse">
		<stop  offset="0" style="stop-color:#FFC200"/>
		<stop  offset="0.233" style="stop-color:#FFAE00"/>
		<stop  offset="0.4486" style="stop-color:#FF9800"/>
		<stop  offset="0.6278" style="stop-color:#FF7D01"/>
		<stop  offset="0.8655" style="stop-color:#FF5F02"/>
		<stop  offset="1" style="stop-color:#FF5402"/>
	</radialGradient>
	<path class="st13" d="M256.8,649.8c-0.4,0.3-1,0.2-1.6-0.3L146.8,541l-10.2-10.2L0,394.2v-2.5l140.5,140.5l5.9,5.9l110.1,110.1
		C257,648.8,257.2,649.5,256.8,649.8z"/>
	
		<linearGradient id="SVGID_9_" gradientUnits="userSpaceOnUse" x1="0" y1="140.84" x2="215" y2="140.84" gradientTransform="matrix(1 0 0 -1 0 719.89)">
		<stop  offset="0" style="stop-color:#F42C2B"/>
		<stop  offset="0.3712" style="stop-color:#F12A29"/>
		<stop  offset="0.6939" style="stop-color:#E62321"/>
		<stop  offset="0.9983" style="stop-color:#D41714"/>
		<stop  offset="1" style="stop-color:#D41714"/>
	</linearGradient>
	<polygon class="st14" points="215,684.3 137.2,688.8 0,550.8 0,469.3 62.7,532.1 	"/>
	
		<radialGradient id="SVGID_10_" cx="2.631" cy="496.8926" r="360.3014" gradientTransform="matrix(1 0 0 -1 0 719.89)" gradientUnits="userSpaceOnUse">
		<stop  offset="0" style="stop-color:#FFC200"/>
		<stop  offset="0.233" style="stop-color:#FFAE00"/>
		<stop  offset="0.4486" style="stop-color:#FF9800"/>
		<stop  offset="0.6278" style="stop-color:#FF7D01"/>
		<stop  offset="0.8655" style="stop-color:#FF5F02"/>
		<stop  offset="1" style="stop-color:#FF5402"/>
	</radialGradient>
	<polygon class="st15" points="168.6,420.2 0,250.3 0,331.4 168.6,500 	"/>
	
		<radialGradient id="SVGID_11_" cx="60.1557" cy="228.6319" r="159.2455" gradientTransform="matrix(1 0 0 -1 0 719.89)" gradientUnits="userSpaceOnUse">
		<stop  offset="0" style="stop-color:#FFC200"/>
		<stop  offset="0.233" style="stop-color:#FFAE00"/>
		<stop  offset="0.4486" style="stop-color:#FF9800"/>
		<stop  offset="0.6278" style="stop-color:#FF7D01"/>
		<stop  offset="0.8655" style="stop-color:#FF5F02"/>
		<stop  offset="1" style="stop-color:#FF5402"/>
	</radialGradient>
	<polygon class="st16" points="58.7,501.8 154.9,598 145.8,534.3 	"/>
	<line class="st10" x1="0" y1="425.3" x2="0" y2="394.2"/>
	<line class="st10" x1="0" y1="391.8" x2="0" y2="376.8"/>
	<line class="st10" x1="0" y1="701.9" x2="0" y2="621.1"/>
	<line class="st10" x1="0" y1="562.8" x2="0" y2="550.8"/>
</g>
</svg>
